<?xml version="1.0" encoding="UTF-8"?> <svg xmlns="http://www.w3.org/2000/svg" id="Слой_1" data-name="Слой 1" viewBox="0 0 300 300"> <defs> <style>.cls-1{fill:#01cb84;}</style> </defs> <path class="cls-1" d="M225.31,234.35H74.69a9,9,0,0,1-9-9V74.69a9,9,0,0,1,9-9h0a9,9,0,0,1,9,9V216.28H225.31a9,9,0,0,1,9,9h0A9,9,0,0,1,225.31,234.35Z"></path> <rect class="cls-1" x="101.49" y="173.09" width="18.08" height="25.11" rx="9.04"></rect> <rect class="cls-1" x="136.74" y="147.99" width="18.08" height="50.21" rx="9.04"></rect> <rect class="cls-1" x="171.99" y="99.29" width="18.08" height="98.91" rx="9.04"></rect> <rect class="cls-1" x="207.24" y="65.65" width="18.08" height="132.55" rx="9.04"></rect> </svg> 